<?xml version="1.0" encoding="UTF-8"?> <svg xmlns="http://www.w3.org/2000/svg" xmlns:xlink="http://www.w3.org/1999/xlink" version="1.1" id="Layer_1" x="0px" y="0px" viewBox="0 0 1920 1080" style="enable-background:new 0 0 1920 1080;" xml:space="preserve"> <g> <path d="M1895.4,392.7c-12,25.3-24,50.6-36,75.9c-1.3,2.7-2.9,3.9-5.9,3.7c-3.7-0.2-7.4,0.1-11.2,0c-12.5-0.4-23.1,4.5-32.6,11.9 c-10.3,8-17.9,18-23.4,29.9c-21.2,45.5-42.7,90.8-64.1,136.2c-3.2,6.9-6.4,13.8-9.6,20.7c-0.9,2.1-2,3.4-4.6,3.4 c-24.9-0.1-49.9-0.1-74.8-0.1c-0.5,0-0.9-0.2-2-0.6c0.8-1.8,1.4-3.5,2.2-5.2c13.8-29.5,27.5-59,41.4-88.4 c28.1-59.9,56.3-119.9,84.3-179.9c1.5-3.2,3.2-4.6,6.8-4.5c21.5,0.2,43.1,0.1,64.6,0.1c1.4,0,2.9,0.1,4.7,0.2 c-0.6,4.7-3.3,8.3-4.9,12.2c-1.7,3.8-3.5,7.5-4.7,11.7c0.8-0.8,1.7-1.7,2.5-2.5c11.5-13,25.9-20.8,43.2-22.9c8-1,16.1-1.9,24.1-2.8 C1895.4,392.1,1895.4,392.4,1895.4,392.7z"></path> <path d="M863.2,689.4c24.7,0,49.1,0,74.1,0c-0.6,2-1.1,3.7-1.5,5.3c-1.2,4.9-2.7,9.7-3.3,14.7c-0.9,7.6,2.4,11.6,10,12.6 c14.2,1.9,26.3-2.2,35.4-13.6c2.6-3.3,5.2-6.7,7-10.5c9.3-18.5,18.3-37.2,26.9-56.5c-1.6,1.1-3.3,2.1-4.9,3.2 c-9.8,6.6-19.9,12.7-31.1,16.9c-13.9,5.1-28.1,6.4-42.6,4.2c-18-2.7-26.9-14.3-28.6-32.3c-1.2-12.7,1.1-25.2,4.4-37.4 c5-18.7,12.5-36.4,20.8-53.8c9.9-20.8,19.4-41.7,29.4-62.4c11.5-23.8,26-45.7,46.2-63c21.2-18.2,45.7-27.2,73.8-25.7 c4.3,0.2,8.7,0.8,13,1.8c11.9,2.7,19.1,10.3,21.8,22.2c0.5,2.2,0.8,4.4,1.4,7.4c0.9-1.2,1.6-2,2-2.8c3.2-6.9,6.5-13.8,9.5-20.8 c0.9-2.1,2.1-3,4.4-2.9c22.8,0.1,45.7,0,68.5,0.1c0.8,0,1.5,0.3,2.9,0.5c-1.3,3-2.3,5.7-3.5,8.2c-12.2,25.8-24.4,51.5-36.5,77.3 c-21.8,46.5-43.5,93-65.3,139.5c-11.6,24.6-23.2,49.2-35,73.7c-7.4,15.3-16.2,29.9-27.2,43c-12.6,14.9-28.4,24.8-46.8,31 c-13,4.3-26.4,6.5-40,7.5c-12.1,0.9-24.2,1.6-36.4,0.2c-11.9-1.3-23.3-4.1-33.6-10.3c-14-8.4-22.1-20.5-23.7-36.9 C853.4,715.4,857.3,702.3,863.2,689.4z M1072.3,451.8c-7.5,0.1-13.4,3.5-18.7,8.4c-7.6,7-13.4,15.4-17.8,24.7 c-13.5,28.3-26.7,56.8-39.7,85.3c-3.2,7-6,14.4-7.9,21.8c-2.9,11,2.2,15.4,13.5,15.1c0.3,0,0.6-0.1,1-0.1c7.7-0.8,13.5-5,18.6-10.5 c7.3-8,12.9-17.1,17.5-26.7c12-25.1,23.8-50.3,35.4-75.6c3.5-7.8,6.2-16,8.7-24.1c1-3.3,0.9-7,0.7-10.5c-0.1-3.4-2.3-5.6-5.6-6.6 C1076.2,452.3,1074.2,452.2,1072.3,451.8z"></path> <path d="M198.4,302.3c69.5,0,138.4,0,208,0c-0.8,1.9-1.3,3.4-2,4.8c-10.1,21.6-20.3,43.1-30.2,64.7c-1.7,3.6-3.6,4.9-7.6,4.9 c-35.3-0.2-70.6,0-106-0.2c-3.9,0-6,1-7.7,4.7c-9,19.6-18.3,39-27.5,58.5c-0.6,1.3-1.1,2.6-1.9,4.6c12.6,0.7,24.6,0.2,36.6,0.3 c12,0.1,24,0,36,0c12.1,0,24.3,0,36.9,0c-0.4,1.5-0.5,2.6-1,3.5c-10.7,22.7-21.4,45.4-32,68.2c-1,2.2-2.3,3.3-4.8,3.2 c-3.4-0.2-6.8,0-10.2,0c-30.8,0-61.6,0.1-92.3-0.1c-3.4,0-5.2,1.1-6.6,4.2c-10.2,22.2-20.6,44.3-31,66.5c-1.4,2.9-2.8,5.7-4.5,9.4 c39.2,0,77.6,0,116.6,0c-0.6,1.9-0.9,3.1-1.4,4.2c-10.5,22.4-21.1,44.8-31.6,67.3c-1.2,2.5-2.6,3.8-5.5,3.6c-2.9-0.2-5.8,0-8.7,0 c-62.9,0-125.7,0-188.6,0c-2.1,0-4.2,0-6.8,0c0.4-1.5,0.4-2.6,0.9-3.5c14-29.9,28.1-59.8,42.1-89.7c14.9-31.7,29.7-63.4,44.5-95 c13.7-29.2,27.4-58.3,41.1-87.5c14.2-30.4,28.4-60.7,42.6-91.1C196.6,305.9,197.5,304.2,198.4,302.3z"></path> <path d="M259.5,674.1c0.6-1.7,1-2.9,1.5-4c14.9-32,29.9-64,44.9-96c27.2-58.1,54.5-116.1,81.6-174.2c1.2-2.6,2.4-4.1,5.6-4.1 c22.2,0.1,44.4,0.1,66.6,0.1c1.1,0,2.2,0.2,3.6,0.3c-0.2,4.4-2.8,7.7-4.2,11.3c-1.4,3.6-3.1,7-4.7,10.5c0.3,0.2,0.5,0.4,0.8,0.6 c1.1-1,2.3-1.9,3.4-2.9c14.9-13.7,32.2-22.2,52.3-24.7c9.2-1.1,18.4-1,27.5,1.5c17.8,4.8,29.3,19.5,30.2,37.9 c0.6,12.8-2.2,24.8-7.5,36.3c-13.6,29.4-27.1,58.8-40.7,88.2c-7.6,16.5-15.1,33-22.8,49.4c-10.2,22-20.5,44-30.6,66.1 c-1.3,2.7-2.7,3.9-5.8,3.9c-23.5,0-47,0.1-70.5,0.1c-1.3,0-2.5-0.2-4.5-0.3c0.8-2,1.3-3.6,2-5.1c14.5-31.3,29-62.6,43.5-93.9 c14.6-31.6,29.2-63.2,43.6-95c2.3-5,4-10.3,5.2-15.6c2.6-11.9-2.8-17.7-15-16.5c-4.6,0.5-8.7,2.4-12.5,5c-10,6.9-17.3,16-22.4,26.9 c-6.2,13.2-12.3,26.4-18.5,39.6c-20.6,43.8-41.2,87.6-61.8,131.4c-3.2,6.7-6.3,13.5-9.3,20.3c-1,2.2-2.4,3.1-4.8,3.1 c-24.6-0.1-49.3,0-73.9-0.1C261.5,674.5,260.9,674.3,259.5,674.1z"></path> <path d="M752.3,548.3c-41.6,0-82.9,0-124.3,0c-0.7,1.2-1.4,2.3-2,3.4c-7.1,15.1-14.1,30.2-21.1,45.4c-2.4,5.2-4.3,10.5-4.2,16.3 c0.1,8,4.3,12.8,12.3,13.4c10.8,0.8,20.3-2.2,27.3-10.9c3.9-4.9,7.3-10.3,10.4-15.8c3.6-6.3,6.8-12.9,10-19.4c1-1.9,2.1-3,4.4-3 c24.6,0.1,49.2,0.1,73.9,0.1c0.3,0,0.6,0.2,1.3,0.3c-0.2,0.8-0.2,1.8-0.6,2.5c-9.8,19.7-20.4,39.1-34.2,56.4 c-8.5,10.7-18.1,20.4-29.7,27.7c-15.3,9.5-32.1,14.3-49.8,16.8c-16.3,2.2-32.6,2.6-49,2c-9.4-0.4-18.7-1.9-27.6-5.1 c-19-6.8-29-20.5-29.7-40.7c-0.4-12.1,2.1-23.8,5.5-35.3c3.9-13.1,9.5-25.5,15.2-37.8c12.7-27,25.2-54,38.2-80.8 c11-22.6,24.7-43.3,44.2-59.7c13.1-11,27.8-18.9,43.9-24.3c19.8-6.6,40.1-8.7,60.8-8.1c11.9,0.3,23.4,2.8,33.9,8.9 c16.9,9.9,25.3,24.9,26.8,44.1c1.1,14.6-2.1,28.4-7.9,41.6c-8.7,19.9-17.7,39.6-26.6,59.4C753.5,546.6,753,547.2,752.3,548.3z M651.8,497.2c1.2,0.2,1.7,0.4,2.2,0.4c13.9,0.1,27.8,0,41.7,0.2c2.5,0,3.7-1.1,4.7-3.2c3.9-8.5,7.9-17,11.7-25.6 c2.4-5.4,3.7-11,3.3-17c-0.6-7-4.3-10.9-11.3-11.7c-8.5-0.9-15.9,1.7-22.5,6.9c-5.3,4.2-9.5,9.4-12.7,15.2 c-4.1,7.5-7.9,15.2-11.7,22.9C655.4,489,653.8,492.9,651.8,497.2z"></path> <path d="M1667.6,548.4c-41.6,0-83,0-124.6,0c-4.5,9.8-8.9,19.4-13.4,28.9c-3.2,6.7-6.7,13.3-9.5,20.2c-1.9,4.6-3.4,9.5-4.1,14.4 c-1.2,8.8,3.6,14.4,12.5,15c10.8,0.8,20.4-2.3,27.2-11c4.4-5.6,8-11.8,11.5-17.9c3.2-5.6,6-11.5,8.9-17.3c1-1.9,2.1-2.9,4.5-2.9 c24.5,0.1,48.9,0.1,73.4,0.1c0.5,0,0.9,0.2,1.6,0.4c-0.1,0.6,0,1.3-0.2,1.8c-10.5,21.3-21.9,41.9-37.1,60.3 c-18,21.7-40.7,35.2-68.6,39.9c-22.3,3.8-44.8,4.9-67.3,2.3c-6.5-0.8-13.1-2.5-19.3-4.8c-18.7-6.7-27.9-21.5-28.5-41 c-0.4-12.5,2.8-24.4,6.4-36.2c5.1-16.8,13.1-32.4,20.5-48.2c10.8-23,21.6-46,32.6-69c11.7-24.6,27.1-46.4,49-63.1 c19.2-14.7,41.1-23.3,65-26.4c10.9-1.4,21.9-1.9,32.9-2c11.9-0.1,23.5,2.3,34.1,8.2c18.7,10.4,27.8,26.5,28.6,47.6 c0.6,14.2-3,27.6-8.7,40.5c-8.1,18.4-16.5,36.6-24.8,54.9C1669.4,544.6,1668.6,546.4,1667.6,548.4z M1614.3,497.5 c4.7-10.4,9.5-20.5,13.8-30.8c1.4-3.4,2.2-7.1,2.5-10.8c1-10.6-4.5-16.1-15.2-15.8c-9.3,0.3-16.7,4.3-23,10.9 c-5.3,5.5-9.3,12-12.7,18.8c-4,8.3-7.8,16.7-11.7,25c-0.3,0.7-0.4,1.5-0.6,2.5C1583.2,497.5,1598.5,497.5,1614.3,497.5z"></path> <path d="M1386.9,458.6c-28.1,0-55.2,0-82.8,0c0.7-1.9,1-3.1,1.5-4.3c8.6-18.5,17.3-36.9,25.8-55.5c1.3-2.9,3.3-3,5.9-3 c25.1,0,50.2,0,75.3,0c32.1,0,64.2,0,96.2,0c1.9,0,3.8,0,6.5,0c-0.8,2.1-1.2,3.6-1.8,5c-8.5,18.2-17.1,36.4-25.7,54.5 c-0.9,1.8-2.2,3.6-3.7,5c-27.8,27.4-55.6,54.8-83.4,82.3c-14.2,14-28.3,28.1-42.5,42.1c-7.5,7.4-15.1,14.7-22.6,22.1 c-1.2,1.2-2.4,2.4-3.6,3.7c0.1,0.3,0.3,0.7,0.4,1c29.7,0,59.3,0,89.6,0c-0.8,2-1.3,3.4-1.9,4.6c-8.5,18.2-17.1,36.4-25.4,54.6 c-1.4,3.1-3.2,4.2-6.6,4.2c-59.9-0.1-119.9-0.1-179.8-0.2c-1.4,0-2.8-0.2-4.6-0.3c0.6-1.6,0.9-2.8,1.4-3.9 c9-19.4,18-38.8,27.1-58.1c0.8-1.7,2-3.4,3.3-4.7c38-37.4,76-74.7,114.1-112c11.4-11.2,22.9-22.5,34.3-33.7 C1384.8,461.2,1385.4,460.3,1386.9,458.6z"></path> <path d="M719.8,673.9c0.8-1.9,1.3-3.3,2-4.7c14.7-31.4,29.5-62.7,44.2-94.1c23.2-49.4,46.3-98.9,69.4-148.3 c4.3-9.1,8.7-18.1,12.9-27.2c1.3-2.8,2.9-3.8,5.9-3.7c20.4,0.1,40.8,0,61.2,0.1c2.8,0,5.7,0.1,9.3,0.2c-4.1,8.5-7.8,16.3-11.5,24.1 c18.9-21.1,42.5-29.9,70.7-28.4c-0.3,1.1-0.4,2.2-0.8,3.1c-11.6,24.6-23.3,49.2-34.9,73.8c-1.2,2.5-2.7,3.7-5.6,3.5 c-4-0.2-8.1,0.1-12.1,0c-12.3-0.3-22.8,4.5-32.1,11.8c-10,7.8-17.5,17.5-22.8,29.2c-11.6,25.3-23.6,50.4-35.5,75.6 c-12.8,27.1-25.6,54.2-38.3,81.3c-1.2,2.6-2.5,4.1-5.7,4.1c-24.1-0.1-48.3-0.1-72.4-0.1C722.5,674.3,721.5,674.1,719.8,673.9z"></path> <path d="M1309.7,396.4c-0.7,2-1.2,3.5-1.9,4.9c-13.5,28.9-27,57.8-40.5,86.7c-24.6,52.3-49.2,104.6-73.7,156.9 c-4.1,8.6-8.1,17.3-12,26c-1.1,2.5-2.6,3.7-5.5,3.7c-24.5-0.1-48.9-0.1-73.4-0.1c-0.6,0-1.3-0.2-2.7-0.3c0.6-1.6,1.1-3.1,1.7-4.4 c13.1-28.2,26.3-56.3,39.5-84.5c12.2-26.1,24.4-52.2,36.7-78.3c16.9-35.9,33.8-71.8,50.6-107.7c1-2.1,2-3.4,4.6-3.4 c24.6,0.1,49.2,0.1,73.9,0.1C1307.6,396,1308.2,396.1,1309.7,396.4z"></path> <path d="M1244.7,365.3c0.6-1.6,0.9-2.7,1.3-3.7c6.2-13.3,12.6-26.6,18.7-40.1c1.7-3.8,4-5,8.2-5c22.8,0.2,45.7,0.1,68.5,0.1 c1.7,0,3.5,0,5.9,0c-0.9,2.2-1.4,3.7-2.1,5.1c-6.3,13.3-12.6,26.6-18.8,40c-1.2,2.6-2.6,4-5.8,3.9c-24.1-0.1-48.3-0.1-72.4-0.1 C1247.3,365.6,1246.4,365.5,1244.7,365.3z"></path> </g> </svg> 