<?xml version="1.0" encoding="UTF-8"?> <svg xmlns="http://www.w3.org/2000/svg" xmlns:xlink="http://www.w3.org/1999/xlink" version="1.1" id="Layer_1" x="0px" y="0px" viewBox="0 0 1920 1080" style="enable-background:new 0 0 1920 1080;" xml:space="preserve"> <g> <path d="M403.9,398.6c-30.3,9.2-60.7,18.5-91.1,27.6c-34.8,10.4-69.9,20.1-104.5,31.1c-9.9,3.2-19.3,9-27.9,14.9 c-20.2,13.9-27.3,33-24.2,57.7c4.3,34.6,6.9,69.5,8.7,104.3c0.4,7.9-5.5,16.2-8.5,24.3c-5.5-5.8-12-11-16.3-17.6 c-71.7-110.4-9-259.6,120-283.8c48.5-9.1,94.9-0.6,136.2,28.4c3.1,2.2,5.6,5.2,8.3,7.8C404.5,395.2,404.2,396.9,403.9,398.6z"></path> <path d="M321.9,663.5c-37.9-3.5-72.6-11.2-106.3-23c0.1-1.3,0.2-2.6,0.4-3.8c3.5-0.4,7-1.5,10.4-1.2c33.4,2.7,66.7,5.8,100,8.4 c49.6,3.8,90.9-19,114.1-64c-76.6,22.9-152.8,23.3-231.5,6c3.5-2.1,6.9-5.6,10.6-6c24.3-2.7,48.8-4,73-7.2 c36.9-4.9,73.9-10,110.5-16.7c24.3-4.4,44.8-17.3,61.9-35.3c2-2.1,5.2-3,7.8-4.5c1.2,2.7,3.4,5.4,3.6,8.2 c7.6,95.8-60,186-154.2,198.5c-8.5,1.1-17,3.5-25.4,3.4c-38.7-0.4-74.6-10.8-106.7-33c-4.5-3.1-10.2-5.8-5-12.7 c4.3-5.7,7.1-13.2,17.3-7.9c22.9,11.9,47,19.4,73.3,15C292.9,684.7,307.7,677.3,321.9,663.5z"></path> <path d="M1360.3,423c0,19.6,0,37.1,0,55.5c-37.8,10.3-67.6,30.9-66.8,73.8c0.8,40.7,30.3,59.6,66.7,69.9c0,18.1,0,35.9,0,55.5 c-44.6-5.1-82.2-22.2-107.9-59.2c-27.7-39.9-29.9-83.2-6.6-125.5C1269.9,449.1,1310.4,429.1,1360.3,423z"></path> <path d="M1525.8,563.2c20.7,0,40.9,0,61.4,0c13,38.4,40.7,58.5,80.3,58.8c40.1,0.4,66.9-21.1,80.4-58.7c20.5,0,40.6,0,60.7,0 c5.3,54.8-60.5,109.5-136.8,114.4C1600,682.4,1527.1,625.7,1525.8,563.2z"></path> <path d="M505.6,563.2c20.5,0,40.4,0,60.7,0c13.4,38.9,41.5,59.3,82.1,58.9c39.2-0.3,65.4-21.6,78.6-58.8c20.4,0,40.5,0,62.1,0 c-4.5,38.4-23.1,67.9-54.3,88c-53.3,34.3-109.5,36.1-165.5,6.4C531.2,637.5,503.5,595.2,505.6,563.2z"></path> <path d="M1809.9,537.4c-22.1,0-42,0-62.1,0c-13.7-39.2-42.1-59.3-82.7-58.5c-38.6,0.7-65.2,20.9-77.7,58.5c-20.3,0-40.5,0-62.1,0 c4.7-39.3,24.1-68.9,56.4-88.9c54.7-34,111.6-34.5,167.4-3.1C1784.1,464.9,1804.4,495.8,1809.9,537.4z"></path> <path d="M566.6,537.3c-20.6,0-40.5,0-62.1,0c4.1-37.9,22.6-66.5,52.9-86.6c54.1-35.8,111.2-37.4,168-7.1 c36.6,19.5,57.9,51.2,63.9,93.6c-21.6,0-41.7,0-62.3,0c-13.7-38.8-42-59-82.5-58.4C606.1,479.4,579.3,499.4,566.6,537.3z"></path> <path d="M907.9,670.5c-20.3,0-39.9,0-60.3,0c0-80.1,0-159.9,0-240.3c19.9,0,39.7,0,60.3,0C907.9,509.9,907.9,589.6,907.9,670.5z"></path> <path d="M1172.6,670.8c-4.2,0-7.7,0-11.2,0c-16,0-32.1,0-48.9,0c0-80.5,0-160.2,0-240.7c19.8,0,39.6,0,60.1,0 C1172.6,509.9,1172.6,589.6,1172.6,670.8z"></path> <path d="M937.6,577.9c0-19.9,0-36.8,0-55.3c6.2,0,11.8,0.1,17.5,0c5.5-0.1,11,0,16.4-0.6c13.3-1.5,22-9,22.2-18.8 c0.2-9.4-7.6-17.3-20.9-18.7c-11.4-1.2-22.9-0.2-34.7-0.2c-0.4-4.3-0.9-6.8-0.9-9.3c-0.1-14.7,0-29.4,0-45.2 c26.5-0.1,52.3-3,76.5,8.6c28.4,13.7,44.7,42.5,41,72.1c-4,31.6-26.7,57.9-57.6,63.2C977.9,576.9,958.2,576.6,937.6,577.9z"></path> <path d="M465.7,475c-90.2,27.2-179,39.5-268.5,48c-0.6-1.4-1.2-2.7-1.8-4.1c4.1-2.5,7.9-6.1,12.4-7.3c29.6-8.4,59.4-16.3,89.2-24.4 c36.6-9.9,73.3-19.4,109.6-30.1c10.9-3.2,21.2-9.1,31-15c7.1-4.3,11-3.4,14.3,3.7C456.1,454.9,460.4,463.9,465.7,475z"></path> <path d="M1055,670.4c-23.8,0-44.9,0-66.7,0c-9.9-24.9-19.8-49.7-29.5-74.3c21.5-4.2,41.1-8,62.2-12.1 C1032,611.9,1043.2,640.3,1055,670.4z"></path> <path d="M1389.8,677.4c0-19.2,0-36.7,0-55.3c18.5-4.3,35.3-12.4,48.9-26.6c1.4-1.4,6.9-0.7,9.4,0.9c12.4,8,24.7,16.3,36.5,25.2 c2.2,1.6,3.6,8.4,2.3,9.8C1461.1,659.3,1429.2,674.5,1389.8,677.4z"></path> <path d="M1389.7,474.4c0-13.9,0-31.4,0-50.7c6.4,0.7,12.2,1.1,18,2.2c28.8,5.3,53.9,17.9,74.9,38.5c6.6,6.4,8.2,11.4-1.1,17.1 c-10.9,6.7-21.2,14.4-31.6,22c-5.6,4.1-9.2,3.3-15-0.8C1421.3,492.8,1406.6,484.8,1389.7,474.4z"></path> </g> </svg> 