<?xml version="1.0" encoding="UTF-8"?> <svg xmlns="http://www.w3.org/2000/svg" xmlns:xlink="http://www.w3.org/1999/xlink" version="1.1" id="Layer_1" x="0px" y="0px" viewBox="0 0 1920 1080" style="enable-background:new 0 0 1920 1080;" xml:space="preserve"> <style type="text/css"> .st0{fill:#00B100;} .st1{fill:#4CAA01;} .st2{fill:#C7F700;} .st3{fill:#D1F800;} .st4{fill:#DAF900;} .st5{fill:#BBF600;} .st6{fill:#C7F800;} .st7{fill:#DFFB02;} .st8{fill:#CFF800;} .st9{fill:#B5F800;} .st10{fill:#C5F800;} .st11{fill:#D3F700;} .st12{fill:#CBFA00;} .st13{fill:#D0FB02;} </style> <g> <path class="st0" d="M775.7,541.6c0,198.3-164.2,364.3-371.2,359.1c-191.2-5-353.2-163.2-350.4-366.7 c2.6-195.7,165-355.6,362.3-354.6C617.7,180.3,777.5,345.5,775.7,541.6z M327,568.6c-27.6-0.6-49.8,22.8-49.4,49.8 c0.4,22.2,18.7,49.8,52.4,48.4c20.8-0.8,46.3-19.7,45.9-49.8C375.5,587.5,351,568,327,568.6z M363.9,550.4 c-1,16.7,12.9,35.3,34.3,35.1c19.7-0.2,34.5-14.5,35.3-33.7c0.8-17.1-13.1-36.5-34.9-36.3C379.4,515.6,363.1,531.3,363.9,550.4z M492.2,649c-1.6-20.6-16.5-34.3-35.7-32.8c-18.1,1.4-32.4,17.7-31,36.1c1.4,16.5,16.1,32.4,36.9,30.4 C479.7,681,493.6,665.7,492.2,649z M439.8,428.9c0.4,18.3,15.1,31.6,34.5,31.6c19.7,0,32.2-18.9,32.2-30.8 c0-20.8-14.5-36.3-34.5-35.7C454.7,394.7,439,409,439.8,428.9z M351.4,740.8c18.7,0,32.2-13.5,32.8-32c0.4-16.5-13.7-32.4-32-32.8 c-19.7-0.4-33,16.9-33,32.2C318.9,727.1,335.9,742.2,351.4,740.8z M285.7,569.2c17.3,1,30.6-15.5,30.4-30.8 c-0.2-15.5-13.5-31.2-33.2-30.4c-14.9,0.8-28.6,14.9-28.4,31C254.6,553.6,266.5,569.6,285.7,569.2z M594.8,694.5 c17.1,0.8,29.8-13.7,30.2-29.2c0.6-19.1-15.5-31.8-30.6-31.8c-17.3,0-30.6,15.7-30.4,30C564.4,681,577.4,694.7,594.8,694.5z M225.2,415.6c-0.2,17.3,13.7,29.6,31,30.2c12.1,0.6,29.4-13.9,29-30c-0.4-16.3-14.5-30-32.2-30c-7.3,0-13.3,3.8-18.5,8.7 C227.6,400.7,224.4,408.2,225.2,415.6z M509.1,374.1c17.3,1.2,30.6-13.5,30.6-28.6c0-16.9-11.3-29.6-29.2-29.8 c-18.7-0.2-30.2,15.7-29.8,30.8C481.3,360.8,494.4,374.1,509.1,374.1z M354.2,771.1c-1.6,12.9,12.1,28,27.4,27.8 c17.7-0.2,27.8-13.3,27.8-27.6c0-16.5-11.5-27-27.4-27.4C366.7,743.5,354.2,756.1,354.2,771.1z M528.3,680 c12.5,0,23.8-10.1,23.8-21.4c0.2-15.3-10.5-24.8-23.8-25.2c-11.7-0.2-23.6,10.3-23.6,23C504.9,671.3,516.2,680.6,528.3,680z M463.2,489.2c0-12.9-9.5-22.8-22-22.8c-12.9,0-23.4,9.9-23,22.4c0.2,13.3,8.5,22.4,22,22.8C453.1,511.9,463.2,502.1,463.2,489.2z M268.1,458.9c-9.7-0.2-18.1,8.5-18.3,18.5c-0.2,11.3,8.1,19.5,19.7,19.5c9.1,0,17.7-8.7,17.9-18.5 C287.9,467.8,279.4,459.1,268.1,458.9z M398.5,654.2c10.3,0,18.7-7.5,18.7-16.5c0-12.3-7.3-20.4-18.7-20.4 c-10.1,0-18.5,7.9-18.5,16.9C379.8,646.3,387.2,654.2,398.5,654.2z M660.3,668.3c0-6.9-5.6-12.1-13.1-12.1 c-7.1,0-12.9,5.4-12.9,11.9c-0.2,8.1,5.2,13.7,13.1,13.7C654.8,682,660.1,676.2,660.3,668.3z M191.4,770.7c1.6-1.8,3-2.8,3.4-4 c0.2-0.6-1.6-2.4-2.6-2.4s-2.6,1.4-3,2.4C189,767.4,190.4,768.6,191.4,770.7z M222.2,781.9c-1.8-1.4-2.8-2.8-3.8-3 c-1.8-0.4-3.4,0.8-3.2,2.6c0,1,1.6,2.8,2.4,2.8C218.8,784.4,220,783.2,222.2,781.9z M169,423.5c-1.4,1.8-2.6,2.8-2.8,4 c-0.4,2,1.4,3.2,3,2.8c1-0.2,2.4-1.8,2.4-2.8C171.8,426.3,170.4,425.3,169,423.5z M94.1,512.1c-1.2,2-2.6,3-2.6,4.2 c-0.2,2,1.4,3,3.2,2.6c1-0.2,2.4-1.8,2.2-2.4C96.7,515.2,95.5,514.2,94.1,512.1z M496,685.2c-2.2-1-3.4-2.4-4.4-2 c-1,0.2-2.2,1.8-2.2,3c0,0.8,1.8,2.4,2.4,2.4C493,688,494,686.8,496,685.2z M495.2,587.3c1.2-1.8,2.6-3,2.6-4c-0.2-1-2-2.4-2.8-2.4 c-1,0-2.4,1.8-2.6,2.8C492.4,584.7,493.8,585.7,495.2,587.3z M171.4,774.7c-1.6,1.6-2.8,2.6-3.2,3.6c-0.2,0.6,1.4,2.4,2.2,2.4 c1.2,0,2.8-1,3.2-2C173.8,777.9,172.4,776.5,171.4,774.7z M427.7,830.9c-1.2,1.6-2.4,2.6-2.4,3.6c-0.2,1.8,1.4,3.2,3.2,2.8 c1-0.2,2.2-1.8,2.2-2.6C430.4,833.5,429.1,832.7,427.7,830.9z M297,808.7c-2-1.4-3.2-2.8-4-2.8c-1,0-2,1.6-3,2.4 c0.8,0.8,1.6,2.2,2.4,2.2C293.3,811,294.7,809.9,297,808.7z M146.8,575c1.2-1.8,2.6-3,2.2-3.8c-0.4-1-1.6-2.2-2.8-2.4 c-0.6-0.2-2.4,1.6-2.2,2.2C144.2,572.4,145.4,573.4,146.8,575z M245.2,312.9c-1,1.8-2.2,2.8-2,3.8c0.2,1,1.6,2.4,2.4,2.2 c0.8,0,2.2-1.4,2.4-2.4C247.8,315.7,246.6,314.7,245.2,312.9z M526.1,431.5c-1.8-1.2-2.8-2.6-3.6-2.4c-1,0.2-2.4,1.4-2.6,2.6 c-0.2,0.6,1.4,2.4,2.2,2.4C523,434.2,524.3,432.9,526.1,431.5z"></path> <path class="st1" d="M1705.4,563.3c0-22.6,0-44.9,0-67.5c0-5,0-5-4.8-5c-38.9,0-78,0-116.9,0c-0.8,0-7.3,0.6-13.5,2.6 c-6.6,2.2-13.7,6.2-17.5,8.1c-3.8,1.8-16.7,11.7-19.1,14.9c-1.8,2.4-6,6.6-9.1,11.7c-4.6,7.3-8.1,15.7-9.1,17.9 c-1,2.4-3.2,7.1-4.4,12.5c-1.2,4.8-1.6,10.5-1.6,13.1c-0.4,8.9,0.6,19.1,1,20.6c0.6,2.4,4,15.3,7.1,21c4,7.5,8.9,14.3,15.1,19.7 c2,1.8,10.5,11.3,22.4,16.5c13.7,6,31.2,7.7,32,7.7c23.4,0,46.5,0,69.9,0c6.9,0,14.9,6.2,18.1,12.3c3.4,6.4,2.4,13.1,1.6,19.3 c-0.6,6-5.6,10.5-10.7,14.1c-3.4,2.4-7.7,2.6-11.7,2.6c-27-0.2-86.6,0-89.1-0.6c-0.2,0-11.7-2-22.8-5.8 c-11.1-4-20.8-11.3-23.8-13.1c-8.9-5.4-16.5-12.5-23.8-19.9c-5.2-5.4-9.7-11.3-13.7-17.7c-2.6-4.2-5.2-8.7-7.7-12.9 c-1.6-2.8-2.6-5.8-4.2-8.7c-0.4-1-1.4-1.6-2.2-2.4c0,1-0.2,1.8-0.2,2.8c0,18.7-0.2,37.7,0,56.4c0,9.7-4.6,15.7-13.1,19.9 c-7.9,4-15.3,2.2-23-0.8c-7.3-2.8-11.7-11.5-12.3-15.1s0-84.8,0-124.9c-1-5.8-2.2-9.3-3.6-13.9c-1.2-4.2-3-8.5-5.2-12.5 c-2-3.6-4.2-7.3-6.2-10.9c-3-5.8-8.1-9.7-12.3-14.1c-4.6-4.8-10.5-7.9-16.5-10.9c-1.8-0.8-3.4-1.6-5.2-2.4c-2.2-1-7.1-3.2-12.5-4.2 c-9.1-1.4-20.1-1.4-25.8-0.6c-8.9,1-16.9,4.2-18.3,4.6c-7.1,1.8-24.4,14.1-26.6,16.5c-3.2,3.2-9.1,10.5-13.5,18.1 c-2.2,3.6-5.6,10.5-7.9,17.5c-2.4,7.7-3,15.5-3,16.5c0,38.3-0.2,76.6,0,114.9c0,4.6-1.6,8.5-3.6,12.5c-1.6,3.2-3.2,6.4-6.9,8.1 c-7.7,3.6-15.3,5.2-24,2c-4.8-1.8-8.1-5-10.5-8.5c-2.4-3.4-3.4-7.9-3.4-12.5c0.2-40.9,0-82,0-122.9c0-1.6,1.4-17.5,5.2-30.8 c3-10.7,16.3-31.6,16.5-31.8c7.3-9.1,14.3-18.3,23.2-25.4c5.2-4.2,10.7-8.5,16.5-11.9c5.2-3.2,11.1-5.4,16.5-7.9 c1.8-0.8,6.6-2.4,11.1-4c3.6-1.4,20.4-4.8,26.4-5c7.3-0.4,14.9-0.6,22.4-0.4c3.4,0,12.9,1.6,14.1,1.8c2.8,0.2,25.6,7.1,33.2,10.7 c3.6,1.8,14.1,8.7,23,16.5c7.3,6.2,13.3,13.3,16.5,16.5c3.4,3.4,5.6,8.3,8.7,12.3c4,5.4,6.6,11.3,9.7,17.3c1.6,3,2.8,6.2,4.2,9.5 c1.2,2.8,2.6,11.1,3.2,11.7c0.2,0.2,1.6,0,1.6-0.4c3.2-11.7,9.5-22.2,14.5-33c1.2-2.8,3.4-5.2,5.2-7.5 c8.7-10.7,16.5-22.2,28.8-29.4c3.8-2.2,6.9-5.4,10.5-7.9c3.4-2.2,7.5-4,11.1-5.8c4.4-2,8.9-4,13.3-6c1.2-0.6,2.4-0.6,3.6-1 c1.6-0.6,3.2-1,5-1.6c0.4-0.2,0.6-0.4,0.8-0.4c5-0.8,9.9-2.4,14.9-2.4c42.1-0.2,84.2-0.2,126.5-0.4c6.9,0,6.2,0.4,6.2-6 c0-16.9,0-34.1,0-51c0-4.4,1.8-8.3,4.8-11.3c0.6-0.8,3-3.6,6.2-5.4c3.2-1.8,7.5-2.6,8.3-2.8c3.4-0.2,7.5,0.4,9.5,0.2 c7.3,0,11.7,3.6,15.3,9.9c3.8,6.2,4.2,12.5,4.2,19.1c-0.2,14.1,0,28.2,0,42.5c0,4.6,0,4.6,4.6,4.6c28,0,56,0.4,84,0.2 c10.5-0.2,16.9,4.8,20.8,14.1c3.2,7.9,2.6,15.1-1.4,23c-2.6,5.4-6.9,8.1-11.5,10.7c-1.4,0.8-3.6,0.4-5.4,0.4c-28,0-56,0.2-84,0.2 c-7.9,0-7.1-0.8-7.1,7.3c0,41.7,0,83.2,0,124.9c0,5,5.6,19.7,7.1,22.4c2.4,4.8,4.8,9.7,7.9,14.5c2.8,4.6,6.4,8.5,10.3,11.9 c6.6,6.2,14.3,11.5,22.6,15.3c1.6,0.8,9.3,3.6,17.9,5.2c8.7,1.6,18.5,2.8,21,3.6c6,2.2,11.1,5,14.1,11.7c2.4,5.2,0.2,19.9-0.8,22.2 c-4,8.7-11.1,12.1-20.4,12.3c-3.8,0.2-7.7,0-11.5,0c-1.4,0-7.1-0.4-12.9-1.6c-8.1-1.6-16.7-4.2-18.3-4.8c-3.9-1.5-16.9-7.7-29-15.8 c-6.4-4.2-16.9-12.4-25.3-21.2c-7.3-7.7-12.7-16-15.4-20.4c-6.6-11.1-11.3-24.4-12.5-28.4c-2.6-8.5-2.4-17.7-2.4-20.6 C1705.4,607.2,1705.6,585.3,1705.4,563.3C1705.6,563.3,1705.4,563.3,1705.4,563.3z"></path> <path class="st1" d="M865.6,553.6c0-37.9,0-76,0-113.8c0-16.5-0.4-33,0-49.4c0.2-7.5,2.6-14.7,8.7-19.9c3-2.6,6.4-4.2,10.5-4.4 c3,0,6,0,9.1,0c6.6,0,14.7,6,17.9,11.9c2,3.6,2,7.1,2,10.9c0,44.3,0,88.7,0,132.8c0,1.4,0,3,0,4.4c0.2,1.6,0.4,3.2,0.8,4.6 c1.4-0.8,3-1.6,4.2-2.6c2.4-2,167.6-150.1,175.9-156.6c2.2-1.8,8.1-5,13.9-6c3-0.4,8.3-1,12.9,0.6c5,1.6,9.3,5.4,10.5,7.7 c1.2,2,5.4,7.5,5.8,13.7c0.4,6.4-3.2,13.9-5.4,16.3c-0.6,0.8-176.3,158-182.6,163.6c-1.4,1.2-2.8,2.4-4.2,3.6c1.6,1,3.2,1.8,4.8,3 c5.6,4,28.6,19.1,34.3,22.8c3.2,2,139.4,92.1,144.9,95.9c2.6,1.8,5.2,3.8,8.1,5.4c1.8,1,5,4.8,7.1,9.1c1,2.4,3,8.3,2.4,13.9 c-0.6,5-3.8,9.7-5.2,11.9c-3,4.8-9.5,8.5-15.1,9.9c-5.6,1.4-14.1-1.2-17.5-3.2c-3.6-1.8-16.7-11.3-20.1-13.5 c-2.8-1.8-39.5-26-42.9-28.4c-3-2-16.9-11.3-21-13.9c-3.4-2.2-101.4-66.3-108.4-70.9c-1.6-1-2.4-0.6-2.6,1.2c-0.2,1.4,0,3,0,4.4 c0,34.5,0,68.9,0,103.4c0,8.7-5.4,13.7-12.1,18.3c-4.8,2.8-11.3,3-16.7,2c-2.4-0.4-7.1-2.2-10.3-5c-2.8-2.2-4.2-5.2-4.6-5.8 c-0.8-1.4-1.6-3-2.2-4.8c-4.4-13.1-2-26.6-2.2-39.9C865.4,642.5,865.6,598,865.6,553.6L865.6,553.6z"></path> <path class="st1" d="M1121.9,593.3c-18.1,0-36.3,0.2-54.4,0c-1.6,0-6.2-1.2-9.7-3.2c-3.2-1.8-5.4-4.4-6.4-6c-3-6-1.8-13.1-1.2-18.9 c0.4-4.4,4.6-7.9,8.7-10.5c3.4-2.4,7.7-2.6,11.7-2.6c35.1,0,69.9,0,105,0c7.9,0,13.1,3.6,16.3,10.9c3.8,8.5,2.2,21.4-4.4,26.2 c-3.4,2.4-6.6,4.4-11.1,4.4C1158.4,593.3,1140,593.5,1121.9,593.3L1121.9,593.3z"></path> <path class="st1" d="M1600.1,552.2c18.1,0,36.3-0.2,54.4,0c7.1,0,11.9,3.8,15.5,10.1c3.2,5.6,2.6,11.5,1.6,16.9 c-0.8,5-4,9.5-9.7,12.1c-3.6,1.8-6.9,2-10.5,2c-35.1,0-70.3,0-105.4,0c-7.3,0-12.1-3.8-15.9-10.1c-3.2-5.6-2.6-11.5-1.6-16.7 c0.8-5,4.2-9.5,9.7-12.1c3.6-2,7.3-2,10.9-2C1566.2,552.2,1583.1,552.2,1600.1,552.2z"></path> <path class="st1" d="M1343.3,598.2c-5.6,0.8-12.1-1-15.1-2.6c-5.6-3-9.1-9.9-10.3-12.5c-1.2-2.4-2.8-9.7-1-16.1 c2.2-7.3,7.9-14.1,10.1-15.7c5-3.2,12.1-4,14.1-4c0.4,0,8.1,1.2,13.1,4.2c2.2,1.4,6.2,5,8.3,9.7c2.2,5.2,2.4,11.7,2,15.1 c-0.4,2.6-1.2,9.3-5.4,13.7C1354.2,595,1345.8,597.8,1343.3,598.2z"></path> <path class="st2" d="M191.4,770.7c-1.2-2-2.4-3.2-2.2-4.2s2-2.4,3-2.4s2.8,1.8,2.6,2.4C194.6,767.8,193,768.8,191.4,770.7z"></path> <path class="st3" d="M222.2,781.9c-2.2,1.2-3.4,2.6-4.6,2.4c-1,0-2.4-1.8-2.4-2.8c-0.2-1.8,1.4-3,3.2-2.6 C219.4,779.1,220.4,780.3,222.2,781.9z"></path> <path class="st4" d="M169,423.5c1.4,1.8,2.8,2.8,2.8,3.8c0,1-1.4,2.6-2.4,2.8c-1.8,0.4-3.4-0.8-3-2.8 C166.4,426.3,167.8,425.3,169,423.5z"></path> <path class="st5" d="M94.1,512.1c1.4,2,2.6,3,3,4.4c0.2,0.6-1.4,2.2-2.2,2.4c-1.8,0.4-3.4-0.6-3.2-2.6 C91.4,515.2,92.6,514.2,94.1,512.1z"></path> <path class="st6" d="M496,685.2c-2,1.6-3,3-4.2,3.2c-0.6,0.2-2.4-1.6-2.4-2.4c0.2-1.2,1.2-2.8,2.2-3 C492.6,682.8,493.8,684,496,685.2z"></path> <path class="st7" d="M495.2,587.3c-1.4-1.6-3-2.6-3-3.6c0-1,1.6-2.6,2.6-2.8c1,0,2.8,1.4,2.8,2.4 C498.1,584.3,496.6,585.5,495.2,587.3z"></path> <path class="st8" d="M171.4,774.7c1.2,1.8,2.6,3.2,2.4,4c-0.4,1-2,2-3.2,2c-0.8,0-2.4-1.8-2.2-2.4 C168.4,777.3,169.8,776.3,171.4,774.7z"></path> <path class="st9" d="M427.7,830.9c1.4,1.6,2.6,2.6,2.8,3.8c0.2,0.8-1.2,2.4-2.2,2.6c-1.8,0.4-3.2-0.8-3.2-2.8 C425.3,833.5,426.5,832.7,427.7,830.9z"></path> <path class="st10" d="M297,808.7c-2.2,1-3.6,2-4.6,2c-0.8,0-1.6-1.4-2.4-2.2c1-0.8,2-2.2,3-2.4C293.7,805.9,294.9,807.3,297,808.7z "></path> <path class="st11" d="M146.8,575c-1.4-1.8-2.6-2.8-2.8-3.8c0-0.8,1.6-2.4,2.2-2.2c1.2,0.2,2.4,1.4,2.8,2.4 C149.3,572,147.9,573.2,146.8,575z"></path> <path class="st12" d="M245.2,312.9c1.4,1.8,2.6,2.6,2.6,3.6c0,1-1.4,2.4-2.4,2.4c-0.8,0-2.2-1.4-2.4-2.2 C243,315.9,244.2,314.7,245.2,312.9z"></path> <path class="st13" d="M526.1,431.5c-1.8,1.2-3,2.4-4,2.4c-0.8,0-2.4-1.8-2.2-2.4c0.4-1,1.6-2.2,2.6-2.6 C523.2,428.9,524.3,430.3,526.1,431.5z"></path> </g> </svg> 