<?xml version="1.0" encoding="UTF-8"?> <svg xmlns="http://www.w3.org/2000/svg" xmlns:xlink="http://www.w3.org/1999/xlink" version="1.1" id="Layer_1" x="0px" y="0px" viewBox="0 0 1920 1080" style="enable-background:new 0 0 1920 1080;" xml:space="preserve"> <g> <path d="M129,452.5c15.1-1.2,30.3-2.4,45.4-3.6c23.9-1.9,47.7-3.8,71.6-5.7c20.8-1.7,41.5-3.3,62.3-4.9c24-1.9,47.9-3.8,71.9-5.7 c23.5-1.9,47.1-3.7,70.6-5.6c24-1.9,47.9-3.8,71.9-5.7c20.8-1.6,41.5-3.3,62.3-4.9c24-1.9,47.9-3.8,71.9-5.7 c20.9-1.7,41.8-3.3,62.6-4.9c23.7-1.9,47.5-3.8,71.2-5.7c20.9-1.7,41.8-3.3,62.6-5c21.3-1.7,42.6-3.4,64-5.1 c20.7-1.6,41.3-3.3,62-4.9c24.3-1.9,48.6-3.9,72.9-5.8c20.9-1.6,41.8-3.3,62.6-4.9c23.9-1.9,47.7-3.8,71.6-5.7 c24-1.9,47.9-3.8,71.9-5.6c21.4-1.7,42.9-2.8,64.3-5.2c29.1-3.2,46.9,14.5,52.9,31.2c11.2,31.3-12.6,64.6-45.9,63.8 c-2.7-0.1-5.3,0-8,0c-395.2,0-790.5,0-1185.7,0c-2.3,0-4.6,0-6.9,0C129,452.8,129,452.6,129,452.5z"></path> <path d="M1614.6,727.9c-16,14.4-35.5,17.6-55.6,18.2c-17.5,0.6-35,0.6-52.5,0c-21.7-0.7-42.7-4.9-61.8-16 c-16.6-9.6-28.1-23.3-30.7-42.7c-4.3-32.3,8-60.7,39.4-77.5c16-8.6,33.3-13.1,51.1-16c18.1-2.9,36.4-4.1,54.7-3.7 c15.2,0.3,30.3,1.7,45.5,2.6c1.7,0.1,3.5,0.2,5.6,0.3c-0.1-8.1-2.8-14.7-8.7-19.9c-8-7-17.8-9.8-28-11.3 c-43-6.3-84.3,0.3-124.4,16.1c-1,0.4-2,0.8-3.5,1.4c-0.1-1.5-0.2-2.6-0.2-3.8c0-19.6,0-39.2-0.1-58.9c0-2.8,0.8-3.7,3.5-4.4 c34.8-8.6,70.1-12.8,106-12.6c18.3,0.1,36.6,0.1,54.8,2.2c15.3,1.8,30.2,5,44,11.9c21.5,10.8,33.7,28.7,38.3,51.8 c1.9,9.6,3,19.5,3.1,29.3c0.3,47.6,0.1,95.1,0.1,142.7c0,5.8,0.3,4.9-4.9,5.2c-16.7,0.8-33.5,1-50.1-1.5 c-6.1-0.9-12.1-2.7-17.9-4.7C1617.4,735,1616.1,732.9,1614.6,727.9z M1607.8,633.6c-1.5,0-2.8,0-4.1,0c-13.3,0-26.6-0.1-39.9,0 c-10.2,0.1-20.4,0-30.5,1c-12.6,1.3-24.7,5-35.1,12.8c-5.4,4-9.4,9.1-11,15.7c-5.1,20.1,5.6,38.2,26.2,42.3 c28.3,5.7,53.9-0.8,75.8-19.8C1604.9,672.1,1610.1,654.3,1607.8,633.6z"></path> <path d="M818.1,503.4c28.4,0,56.3,0,84.5,0c0,80.2,0,160.2,0,240.7c-5.2,0-10.4,0.2-15.7,0c-16.6-0.6-33.2-1.6-49.4-6 c-6.6-1.8-13.2-3.9-17.9-9.8c-9.8,5.9-20.1,10.8-31.3,13.4c-37.8,8.7-73.4,4.4-105.1-19.5c-15.2-11.4-25.6-26.3-29-45.4 c-0.6-3.4-0.9-6.8-0.9-10.2c-0.1-53.2,0-106.4,0-159.6c0-1.1,0-2.2,0-3.5c28.4,0,56.5,0,85.1,0c0,1.5,0,2.9,0,4.3 c0,50.6,0.1,101.3-0.1,151.9c-0.1,10.9,4.6,18.7,13.1,24.6c26.6,18.5,63.3,1.3,66.3-31c0.3-3,0.4-6,0.4-9c0-45.4,0-90.9,0-136.3 C818.1,506.6,818.1,505.2,818.1,503.4z"></path> <path d="M1831.9,744c-27.5,0-54.8,0-82.5,0c0-136.8,0-273.5,0-410.5c27.4,0,54.8,0,82.5,0C1831.9,470.2,1831.9,607,1831.9,744z"></path> <path d="M1233.3,714.1c-9.8,4.2-19,8.6-28.5,12.1c-26.2,9.8-53.3,14.6-81.2,15.5c-35.6,1.2-69.7-4.7-102.1-19.6 c-23.5-10.8-44.1-25.6-59.2-47c-26.3-37.3-23.9-84,5.8-118.8c19.8-23.2,45-38.1,73.6-47.5c62.6-20.4,123.2-14.8,181.4,15.8 c2.4,1.3,4.9,2.6,7.3,4c0.3,0.2,0.5,0.4,1.1,0.9c-9.3,12-18.6,23.9-28.1,36.1c-1.2-0.5-2.3-1-3.3-1.5c-29.1-13.2-59.5-19.4-91.4-18 c-15.7,0.7-30.6,5.1-43.9,13.8c-19.1,12.4-29.2,30.1-30.9,52.7c-1.7,22.3,3.6,42.3,20.1,58.2c12.2,11.8,27.2,18.1,43.7,20.8 c18.8,3.1,37.6,1.3,56.2-1.6c16.7-2.6,32.9-7.2,48.4-13.8c1.7-0.7,2.6-0.4,3.6,1C1214.8,689.2,1223.7,701.2,1233.3,714.1z"></path> <path d="M377.3,714c-8.7,3.8-16.7,7.7-25,10.9c-27.1,10.6-55.3,15.8-84.3,16.8c-36.1,1.2-70.9-4.8-103.7-20.2 c-22.2-10.4-41.7-24.4-56.4-44.3c-27.7-37.5-26.1-84.7,3.9-120.5c18.3-21.8,41.7-36.4,68.2-45.8c60.8-21.6,120.5-18.6,178.8,9.5 c5.2,2.5,10.2,5.3,15.4,7.9c0.4,0.2,0.7,0.5,1.3,0.9c-0.5,0.8-0.8,1.5-1.4,2.2c-8.3,10.7-16.6,21.3-24.9,32.1 c-1.4,1.8-2.4,1.9-4.4,1c-28.5-13.2-58.6-19.4-90-18.5c-15.1,0.4-29.4,4.2-42.5,11.8c-25.4,14.8-35.8,37.7-34.5,66.3 c0.8,19.2,7.8,35.8,22.5,48.7c11.9,10.5,26,16.3,41.5,18.8c21.3,3.4,42.5,1,63.5-2.9c14.1-2.6,27.7-6.8,40.9-12.4 c1.6-0.7,2.7-0.9,3.9,0.8C358.9,689.2,367.8,701.2,377.3,714z"></path> <path d="M437.5,742.1c0-78.6,0-157.1,0-235.5c6.1,0,11.9-0.1,17.7,0c15.5,0.4,31,1.6,46.1,5.5c6.5,1.7,13,3.6,18.1,8.6 c0.5,0.5,2.2,0.3,3.1-0.2c12.8-7.1,26.5-11.7,40.9-14.2c15.8-2.7,31.6-1.6,47.4,0.4c2.2,0.3,1.9,1.8,1.9,3.2c0,8,0,16,0,23.9 c0,10.2,0,20.4,0,30.6c0,1.2,0,2.4,0,3.6c-6.2-1.8-11.9-3.8-17.8-5c-18.4-3.8-36.5-3.2-53.1,6.8c-4.6,2.7-8.8,6.3-12.6,10.2 c-6.1,6.3-8.8,14.1-8.8,23c0,44.9,0,89.8,0,134.7c0,1.4,0,2.8,0,4.5C492.6,742.1,465.1,742.1,437.5,742.1z"></path> <path d="M1361.8,741.3c-27.6,0-55.1,0-82.7,0c0-77.6,0-155,0-232.7c27.6,0,55.1,0,82.7,0C1361.8,586.2,1361.8,663.7,1361.8,741.3z"></path> </g> </svg> 