<?xml version="1.0" encoding="UTF-8"?> <svg xmlns="http://www.w3.org/2000/svg" xmlns:xlink="http://www.w3.org/1999/xlink" version="1.1" id="Layer_1" x="0px" y="0px" viewBox="0 0 1920 1080" style="enable-background:new 0 0 1920 1080;" xml:space="preserve"> <style type="text/css"> .st0{fill:#1C4598;} .st1{fill:#1D4598;} .st2{fill:#1C4597;} </style> <g> <path class="st0" d="M66.1,394.7c48.8,0,97.5,0,146.3-0.1c2.4,0,3.5,1.2,4.7,2.8c52.2,66.6,104.4,133.2,156.5,199.7 c3.8,4.9,7.7,9.8,12.1,15.4c0-73.1,0-145.3,0-217.7c28.8,0,57.2,0,85.9,0c0,97.1,0,194.2,0,291.7c-1.2,0-2.4,0-3.6,0 c-46.2,0-92.4,0-138.6,0.1c-2.5,0-4-0.8-5.5-2.7c-56.2-71.7-112.4-143.4-168.6-215.1c-0.8-1.1-1.7-2.1-3.1-3.8 c0,74.2,0,147.6,0,221.5c-1.6,0-2.8,0-4.1,0c-26.1,0-52.1,0-78.2,0c-1.3,0-2.6,0.1-3.8,0.2C66.1,589.4,66.1,492,66.1,394.7z"></path> <path class="st0" d="M695.1,389.8c26.8,0,53.5-0.2,80.3,0.1c19.7,0.1,39.4,0.8,58.3,6.9c28,9,44.2,28.2,48,57.3 c1.4,10.2,1.9,20.6,2,30.9c0.2,36.7,0.3,73.4,0,110.1c-0.1,12.4-0.7,24.9-3.1,37c-5.2,27-22.4,43.9-48.5,51.7 c-18.1,5.4-36.9,6.3-55.6,6.3c-54.2,0.2-108.5,0.2-162.7,0c-19.1-0.1-38.1-1.1-56.6-6.6c-27.5-8.2-45.7-29.7-48.9-58.2 c-1-8.6-1.6-17.4-1.6-26c-0.1-42.7-0.2-85.5,0.3-128.2c0.1-9.4,1.4-19.1,3.9-28.2c6.4-23.7,22.4-38.7,45.7-46.1 c18.9-6,38.4-6.7,58-6.9C641.3,389.6,668.2,389.8,695.1,389.8z M695,616.3C695,616.3,695,616.3,695,616.3c22.7,0,45.4,0.1,68.1,0 c6.6,0,13.3-0.2,19.9-0.7c12.6-1,18.3-6.8,19.2-19.5c0.3-4.5,0.5-9,0.5-13.6c0-28.3,0-56.7,0-85c0-4.5-0.2-9.1-0.5-13.6 c-0.8-12.5-6.4-18.3-18.8-19.5c-4-0.4-8.1-0.7-12.2-0.7c-49.9-0.1-99.9-0.1-149.8,0c-4.8,0-9.5,0.3-14.3,0.7 c-11.1,1-16.8,5.7-18.5,15.2c-0.5,2.6-0.8,5.3-0.8,8c-0.1,34.7-0.1,69.5,0,104.2c0,2.7,0.3,5.3,0.7,8c1.3,8.7,6,13.9,14.8,15.2 c5.8,0.9,11.8,1.3,17.7,1.3C645.7,616.4,670.4,616.3,695,616.3z"></path> <path class="st0" d="M1853.9,686.6c-1.7,0-2.8,0-3.8,0c-32.4,0-64.7,0-97.1,0.1c-2.6,0-3.9-0.8-5.1-3.1 c-7.7-15-15.6-29.8-23.3-44.8c-1.1-2.2-2.3-3.1-5-3.1c-55.9,0.1-111.7,0.1-167.6,0c-2.4,0-3.7,0.7-4.8,2.9 c-7.7,15.2-15.6,30.3-23.4,45.5c-0.9,1.7-1.8,2.6-3.9,2.6c-31.5-0.1-63.1-0.1-94.6-0.1c-0.5,0-0.9-0.1-1.8-0.1 c0.5-1.1,0.8-2,1.3-2.8c52.2-95.5,104.3-191,156.5-286.5c1.1-1.9,2.2-2.5,4.3-2.5c35.3,0.1,70.5,0.1,105.8,0c2.3,0,3.5,0.6,4.6,2.6 c46.8,85.9,93.7,171.7,140.6,257.5c5.1,9.4,10.2,18.7,15.3,28.1C1852.5,683.8,1853,684.8,1853.9,686.6z M1580.3,572.1 c37.5,0,74.4,0,111.6,0c-18.6-35.2-37.1-70-55.8-105.5C1617.4,502.1,1599,536.8,1580.3,572.1z"></path> <path class="st1" d="M919,686.3c0-97.3,0-194.2,0-291.4c29.9,0,59.8,0,89.9,0c0,46.3,0,92.4,0,139.4c6.2-5.6,11.8-10.8,17.4-15.9 c44.2-40.6,88.3-81.2,132.6-121.7c1.1-1,3-1.9,4.5-1.9c37.8-0.1,75.6-0.1,113.5-0.1c0.7,0,1.3,0,2.9,0 c-53.7,45.8-106.8,91-160.3,136.5c60.1,51.7,120.1,103.2,180.8,155.4c-2,0-3,0-4,0c-39.9,0-79.8,0-119.8-0.1c-1.9,0-4.3-1-5.7-2.3 c-51.5-47.6-102.9-95.3-154.3-142.9c-2.3-2.1-4.6-4.2-7.3-6.7c0,50.9,0,101.2,0,151.8C978.9,686.3,949.1,686.3,919,686.3z"></path> <path class="st2" d="M1406.4,686.4c-29.9,0-59.5,0-89.4,0c0-97.2,0-194.2,0-291.5c29.7,0,59.4,0,89.4,0 C1406.4,491.9,1406.4,588.9,1406.4,686.4z"></path> </g> </svg> 